<?xml version="1.0" standalone="no"?>
<!DOCTYPE svg PUBLIC "-//W3C//DTD SVG 20010904//EN"
 "http://www.w3.org/TR/2001/REC-SVG-20010904/DTD/svg10.dtd">
<svg version="1.0" xmlns="http://www.w3.org/2000/svg"
 width="398.000000pt" height="398.000000pt" viewBox="0 0 398.000000 398.000000"
 preserveAspectRatio="xMidYMid meet">
<metadata>
Created by potrace 1.11, written by Peter Selinger 2001-2013
</metadata>
<g transform="translate(0.000000,398.000000) scale(0.100000,-0.100000)"
fill="#000000" stroke="none">
<path d="M1745 3789 c-59 -7 -159 -35 -195 -54 -163 -87 -240 -399 -243 -990
-1 -205 8 -427 17 -456 3 -8 7 -32 10 -54 9 -71 24 -139 47 -205 48 -145 91
-198 204 -250 67 -31 271 -103 325 -115 8 -2 71 -17 140 -34 69 -17 134 -32
145 -34 79 -14 145 -31 145 -37 0 -37 -173 -225 -286 -309 -32 -25 -63 -50
-69 -55 -5 -6 -29 -24 -53 -40 -23 -16 -40 -31 -38 -33 9 -9 253 80 341 124
145 73 300 185 352 254 10 13 21 15 53 9 73 -13 223 -11 296 4 158 34 280 112
396 256 70 88 190 316 272 520 26 63 51 124 56 135 18 41 106 326 115 375 2 8
8 33 13 55 16 61 21 105 23 191 3 217 -99 363 -312 447 -74 30 -467 119 -759
173 -14 3 -56 11 -95 19 -78 16 -96 19 -210 40 -44 8 -91 17 -105 20 -14 2
-45 7 -69 10 -24 3 -46 7 -50 9 -6 4 -51 10 -155 22 -85 9 -252 11 -311 3z"/>
<path d="M337 1638 c-16 -8 -18 -18 -12 -76 l7 -67 -31 48 c-52 81 -94 51 -49
-35 l26 -49 -33 25 c-39 30 -48 31 -64 12 -9 -11 -5 -21 20 -47 43 -48 57 -70
63 -103 3 -17 19 -49 36 -72 32 -46 37 -60 18 -66 -8 -3 -5 -29 11 -94 13 -49
24 -96 26 -104 38 -183 167 -539 230 -634 l32 -48 -17 -48 c-15 -42 -32 -135
-44 -242 l-4 -38 510 0 c482 0 510 1 503 17 -22 54 -46 132 -51 163 -11 65
-60 120 -109 120 -7 0 -15 4 -17 8 -1 4 -22 23 -45 42 -59 46 -57 70 7 100 58
27 101 67 132 121 16 29 28 39 46 39 42 0 124 70 155 133 28 57 35 105 18 123
-6 5 -5 20 3 39 7 17 23 62 36 102 13 40 26 70 31 68 14 -9 20 32 10 74 -5 23
-5 39 0 35 16 -9 10 25 -11 66 -11 22 -16 40 -10 40 6 0 6 9 0 26 -13 34 -13
34 10 34 32 0 11 29 -41 57 -24 13 -36 23 -26 23 19 0 23 15 6 26 -6 3 -27 6
-48 6 -30 -1 -40 5 -59 32 -37 54 -72 83 -81 67 -7 -10 -11 -10 -23 3 -20 19
-80 56 -93 56 -5 0 7 -11 28 -25 49 -34 47 -38 -6 -15 -23 10 -58 22 -76 25
-30 5 -33 4 -21 -10 11 -13 8 -15 -21 -16 -19 0 -52 -2 -74 -3 -30 -3 -46 2
-63 18 -23 20 -24 20 -37 2 -8 -10 -31 -20 -52 -23 -48 -6 -53 -11 -29 -29 11
-7 18 -15 15 -17 -2 -1 -17 -9 -32 -17 -34 -17 -100 -80 -93 -88 4 -3 -1 -16
-9 -29 -9 -13 -13 -28 -10 -33 3 -5 1 -11 -5 -15 -6 -3 -17 -20 -26 -37 -15
-28 -15 -30 0 -25 9 4 16 5 16 4 0 -18 -52 -119 -72 -140 -59 -63 -63 -222 -6
-284 16 -17 18 -29 13 -54 -12 -52 -8 -102 13 -162 23 -65 15 -81 -39 -75 -31
3 -33 5 -73 123 -31 93 -49 129 -76 157 -21 22 -49 70 -69 120 -19 45 -42 101
-51 123 -10 22 -29 67 -42 100 -16 37 -31 60 -41 60 -29 0 -28 12 1 37 17 14
42 44 56 67 15 23 38 47 51 53 28 12 32 30 12 47 -17 13 -54 7 -77 -14 -41
-37 -50 -4 -26 99 15 62 13 81 -8 89 -23 9 -36 -9 -55 -74 -20 -69 -19 -70
-37 33 -8 46 -23 60 -47 46z"/>
</g>
</svg>
